# xmcd
#
# Track frame offsets: 
#        150
#        39825
#        74695
#        99445
#        135345
#        178295
#        201642
#        250775
#        274775
#        290108
#        318061
#
# Disc length: 4450 seconds
#
# Revision: 0
# Processed by: cddbd v1.4PL0 Copyright (c) Steve Scherf et al.
# Submitted via: ExactAudioCopy v0.90b4
#
DISCID=a711600b
DTITLE=Prince - Star Profile
DYEAR=2000
DGENRE=Blues
TTITLE0=D.N.S.R.
TTITLE1=Just My Imagination
TTITLE2=The Greatest Romance Ever Sold
TTITLE3=Down Home Blues - Kansas City
TTITLE4=Cold Sweat
TTITLE5=Hot Wit U
TTITLE6=Forever In My Life
TTITLE7=I'll Take You There
TTITLE8=So Far, So Pleased
TTITLE9=Everyday Is A Winding Road
TTITLE10=Silly Game
EXTD=
EXTT0=
EXTT1=
EXTT2=
EXTT3=
EXTT4=
EXTT5=
EXTT6=
EXTT7=
EXTT8=
EXTT9=
EXTT10=
PLAYORDER=
